<svg width="28" height="28" viewBox="0 0 28 28" fill="none" xmlns="http://www.w3.org/2000/svg">
<g clip-path="url(#clip0)">
<path d="M26.4544 4.94823e-08H1.54428C0.691284 0.000427296 -0.000213574 0.692352 4.94823e-08 1.54556V26.4557C0.000427296 27.3087 0.692352 28.0002 1.54556 28H26.4544C27.3079 28.0002 27.9998 27.3085 28 26.4551C28 26.4549 28 26.4547 28 26.4544V1.54428C27.9996 0.691284 27.3076 -0.000213574 26.4544 4.94823e-08Z" fill="#4267B2"/>
<path d="M19.332 28.0018V17.1737H22.9824L23.5293 12.9354H19.332V10.2361C19.332 9.01178 19.6719 8.17758 21.4275 8.17758H23.6523V4.39709C23.2653 4.34561 21.9372 4.23047 20.3918 4.23047C17.1653 4.23047 14.957 6.19922 14.957 9.81628V12.9354H11.3203V17.1737H14.957V28.0018H19.332Z" fill="white"/>
</g>
<defs>
<clipPath id="clip0">
<rect width="28" height="28" fill="white"/>
</clipPath>
</defs>
</svg>
