<svg width="28" height="28" viewBox="0 0 28 28" fill="none" xmlns="http://www.w3.org/2000/svg">
<path d="M6.20538 16.9217L5.23074 20.5602L1.66846 20.6355C0.603859 18.6609 0 16.4017 0 14.001C0 11.6794 0.564593 9.49018 1.56537 7.5625H1.56614L4.73757 8.14394L6.12685 11.2963C5.83608 12.144 5.67759 13.054 5.67759 14.001C5.6777 15.0286 5.86386 16.0133 6.20538 16.9217Z" fill="#FBBB00"/>
<path d="M27.7552 11.3828C27.916 12.2297 27.9998 13.1043 27.9998 13.9982C27.9998 15.0005 27.8944 15.9782 27.6937 16.9213C27.0122 20.1305 25.2314 22.9328 22.7645 24.9159L22.7637 24.9151L18.7691 24.7113L18.2038 21.182C19.8407 20.222 21.1199 18.7197 21.7938 16.9213H14.3076V11.3828H21.903H27.7552Z" fill="#518EF8"/>
<path d="M22.7636 24.918L22.7643 24.9188C20.3651 26.8472 17.3174 28.0011 13.9997 28.0011C8.6682 28.0011 4.03284 25.0211 1.66821 20.6357L6.20514 16.9219C7.38742 20.0772 10.4313 22.3234 13.9997 22.3234C15.5336 22.3234 16.9705 21.9088 18.2036 21.1849L22.7636 24.918Z" fill="#28B446"/>
<path d="M22.9362 3.22306L18.4008 6.93612C17.1247 6.13844 15.6162 5.67765 14 5.67765C10.3508 5.67765 7.25002 8.02686 6.12696 11.2954L1.5662 7.56152H1.56543C3.89544 3.06922 8.58926 0 14 0C17.3969 0 20.5116 1.21001 22.9362 3.22306Z" fill="#F14336"/>
</svg>
